<?xml version="1.0" encoding="UTF-8"?>
<svg xmlns="http://www.w3.org/2000/svg" viewBox="0 0 280 200" role="img">
  <defs><linearGradient id="bg-dance" x2="0" y2="1"><stop stop-color="#fff0f2"/><stop offset="1" stop-color="#ffffff"/></linearGradient></defs>
  <rect width="280" height="200" rx="20" fill="url(#bg-dance)"/>
  <ellipse cx="140" cy="177" rx="116" ry="10" fill="#b9d8d0" opacity=".55"/>
  
    <path d="M111 94q25-12 47 3l2 31h-50z" fill="#508cdb" stroke="#34455d" stroke-width="3"/>
    <path d="M116 101L86 68 69 59" fill="none" stroke="#f5bd95" stroke-width="12" stroke-linecap="round" stroke-linejoin="round"/> <path d="M151 101l32-34 17-5" fill="none" stroke="#f5bd95" stroke-width="12" stroke-linecap="round" stroke-linejoin="round"/>
    <path d="M109 127l50 1 20 21h-86z" fill="#ffae79" stroke="#34455d" stroke-width="3"/>
    <path d="M120 149l-24 24-18-5" fill="none" stroke="#555f9f" stroke-width="15" stroke-linecap="round" stroke-linejoin="round"/> <path d="M152 149l25 24 20-5" fill="none" stroke="#555f9f" stroke-width="15" stroke-linecap="round" stroke-linejoin="round"/>
    <g stroke="#34455d" stroke-width="2.5" stroke-linecap="round">
  <circle cx="133" cy="62" r="25" fill="#f5bd95"/>
  <path d="M110 55 Q111 31 137 35 Q158 37 155 56 Q142 45 132 47 Q123 53 110 55" fill="#5a4051"/>
  <circle cx="124" cy="64" r="2.5" fill="#34455d" stroke="none"/><circle cx="143" cy="64" r="2.5" fill="#34455d" stroke="none"/>
  <path d="M126 75q7 8 14 0" fill="none"/>
</g>
    <path d="M56 97v-19l12-5v17m121-46V25l12-5v17" fill="none" stroke="#ba75b4" stroke-width="5" stroke-linecap="round"/><circle cx="52" cy="99" r="5" fill="#ba75b4"/><circle cx="185" cy="46" r="5" fill="#ba75b4"/>
  
</svg>
